<svg xmlns="http://www.w3.org/2000/svg" viewBox="0 0 64 64" width="64" height="64" role="img" aria-label="Atalaia">
  <title>Atalaia — símbolo completo com correção óptica aplicada, para avatar quadrado ou redondo</title>
  <g transform="translate(7, -4)">
    <path fill="currentColor" fill-rule="evenodd" d="M13 24 H31 A7 7 0 0 1 38 31 V49 A7 7 0 0 1 31 56 H13 A7 7 0 0 1 6 49 V31 A7 7 0 0 1 13 24 Z M14 50 L20 50 L30 30 L24 30 Z"/>
    <g fill="none" stroke="#B4560E" stroke-width="5" stroke-linecap="round">
      <path d="M30 17 A13 13 0 0 1 40 29"/>
      <path d="M33 9 A22 22 0 0 1 49 28"/>
    </g>
  </g>
</svg>
